<svg 
 xmlns="http://www.w3.org/2000/svg"
 xmlns:xlink="http://www.w3.org/1999/xlink"
 width="28px" height="28px">
<path fill-rule="evenodd"  fill="rgb(254, 0, 0)"
 d="M14.000,-0.000 C6.269,-0.000 -0.000,6.268 -0.000,14.000 C-0.000,21.731 6.269,27.999 14.000,27.999 C21.731,27.999 28.000,21.731 28.000,14.000 C28.000,6.268 21.731,-0.000 14.000,-0.000 ZM21.393,20.427 L20.272,21.548 C20.072,21.748 19.486,21.872 19.467,21.872 C15.921,21.903 12.506,20.511 9.997,18.001 C7.482,15.485 6.087,12.058 6.125,8.500 C6.125,8.498 6.253,7.929 6.453,7.731 L7.574,6.610 C7.984,6.198 8.772,6.011 9.324,6.196 L9.560,6.275 C10.110,6.460 10.688,7.068 10.840,7.628 L11.404,9.698 C11.556,10.260 11.351,11.060 10.941,11.470 L10.192,12.219 C10.927,14.940 13.062,17.074 15.783,17.810 L16.531,17.062 C16.943,16.650 17.742,16.445 18.303,16.597 L20.373,17.163 C20.933,17.317 21.542,17.891 21.726,18.441 L21.805,18.680 C21.988,19.231 21.803,20.019 21.393,20.427 Z"/>
</svg>