<svg 
 xmlns="http://www.w3.org/2000/svg"
 xmlns:xlink="http://www.w3.org/1999/xlink"
 width="28px" height="28px">
<path fill-rule="evenodd"  fill="rgb(112, 144, 171)"
 d="M14.000,-0.001 C6.268,-0.001 -0.000,6.267 -0.000,13.998 C-0.000,21.730 6.268,27.998 14.000,27.998 C21.731,27.998 28.000,21.730 28.000,13.998 C28.000,6.266 21.731,-0.001 14.000,-0.001 ZM12.443,13.998 C12.443,14.290 12.389,14.569 12.296,14.829 L16.204,16.709 C16.654,16.217 17.299,15.907 18.018,15.907 C19.376,15.907 20.478,17.007 20.478,18.366 C20.478,19.725 19.376,20.826 18.017,20.826 C16.659,20.826 15.557,19.725 15.557,18.366 C15.557,18.236 15.571,18.109 15.590,17.984 L11.430,15.983 C11.024,16.282 10.524,16.459 9.982,16.459 C8.623,16.459 7.522,15.358 7.522,13.998 C7.522,12.640 8.623,11.539 9.982,11.539 C10.524,11.539 11.024,11.716 11.431,12.014 L15.591,10.013 C15.571,9.889 15.558,9.762 15.558,9.632 C15.558,8.273 16.659,7.172 18.018,7.172 C19.376,7.172 20.478,8.273 20.478,9.632 C20.478,10.990 19.376,12.091 18.018,12.091 C17.299,12.091 16.654,11.781 16.204,11.289 L12.296,13.169 C12.389,13.428 12.443,13.707 12.443,13.998 Z"/>
</svg>