<svg 
 xmlns="http://www.w3.org/2000/svg"
 xmlns:xlink="http://www.w3.org/1999/xlink"
 width="28px" height="28px">
<path fill-rule="evenodd"  fill="rgb(247, 148, 29)"
 d="M14.000,27.998 C6.268,27.998 -0.000,21.730 -0.000,13.999 C-0.000,6.267 6.268,-0.001 14.000,-0.001 C21.731,-0.001 28.000,6.266 28.000,13.999 C28.000,21.730 21.731,27.998 14.000,27.998 ZM21.000,10.400 L15.750,5.000 L8.750,5.000 C7.784,5.000 7.000,5.806 7.000,6.800 L7.000,21.200 C7.000,22.194 7.784,23.000 8.750,23.000 L19.250,23.000 C20.216,23.000 21.000,22.194 21.000,21.200 L21.000,10.400 ZM14.875,11.300 L14.875,6.800 L19.250,11.300 L15.750,11.300 C15.266,11.300 14.875,11.300 14.875,11.300 ZM14.875,13.100 L14.875,15.800 L17.500,15.800 L17.500,17.600 L14.875,17.600 L14.875,20.300 L13.125,20.300 L13.125,17.600 L10.500,17.600 L10.500,15.800 L13.125,15.800 L13.125,13.100 L14.875,13.100 Z"/>
</svg>