<svg 
 xmlns="http://www.w3.org/2000/svg"
 xmlns:xlink="http://www.w3.org/1999/xlink"
 width="28px" height="28px">
<path fill-rule="evenodd"  fill="rgb(44, 183, 66)"
 d="M14.241,-0.000 C6.643,-0.000 0.483,6.160 0.483,13.758 C0.483,16.322 1.186,18.721 2.408,20.776 L-0.000,27.999 L7.840,25.936 C9.752,26.943 11.929,27.517 14.241,27.517 C21.840,27.517 28.000,21.357 28.000,13.758 C28.000,6.160 21.840,-0.000 14.241,-0.000 ZM22.787,19.884 L21.938,20.732 C19.246,23.424 16.207,22.099 13.514,19.406 L11.053,16.946 L8.593,14.485 C5.901,11.793 4.575,8.754 7.267,6.062 L8.116,5.213 C8.524,4.804 9.152,4.710 9.662,4.980 C10.863,5.615 12.236,7.958 12.236,7.958 C12.538,8.488 12.572,9.127 12.033,9.430 C12.033,9.430 11.120,10.191 10.989,10.385 C10.390,11.269 10.413,12.089 11.240,12.915 L13.162,14.837 L15.084,16.759 C15.911,17.586 16.730,17.610 17.614,17.011 C17.808,16.879 18.569,15.966 18.569,15.966 C18.871,15.427 19.511,15.461 20.041,15.763 C20.041,15.763 22.384,17.136 23.019,18.337 C23.290,18.847 23.195,19.474 22.787,19.884 Z"/>
</svg>