<?xml version="1.0" standalone="no"?>
<!DOCTYPE svg PUBLIC "-//W3C//DTD SVG 1.1//EN" "http://www.w3.org/Graphics/SVG/1.1/DTD/svg11.dtd" >
<svg xmlns="http://www.w3.org/2000/svg">
<metadata>Generated by IcoMoon</metadata>
<defs>
<font id="iset-icons" horiz-adv-x="1024">
<font-face units-per-em="1024" ascent="960" descent="-64" />
<missing-glyph horiz-adv-x="1024" />
<glyph unicode="&#x20;" horiz-adv-x="512" d="" />
<glyph unicode="&#xe900;" glyph-name="mail" horiz-adv-x="1152" d="M936.001 808h-720c-49.635 0-90-40.366-90-90v-540c0-49.635 40.366-90 90-90h720c49.635 0 90 40.366 90 90v540c0 49.635-40.366 90-90 90zM936.001 718.001v-22.995l-360.001-280.035-360.001 279.99v23.040h720zM216 178.001v403.020l332.371-258.525c8.101-6.345 17.865-9.495 27.63-9.495s19.529 3.15 27.63 9.495l332.371 258.525 0.090-403.020h-720.090z" />
<glyph unicode="&#xe901;" glyph-name="mobile" horiz-adv-x="717" d="M550.462 64.075h-383.925c-42.347 0-76.785 34.438-76.785 76.785v614.28c0 42.347 34.438 76.785 76.785 76.785h383.925c42.347 0 76.785-34.438 76.785-76.785v-614.28c0-42.347-34.438-76.785-76.785-76.785zM550.462 755.14h-383.925v-614.28h384.002l-0.077 614.28zM358.499 256.037c21.193 0 38.393-17.2 38.393-38.393s-17.2-38.393-38.393-38.393c-21.193 0-38.393 17.2-38.393 38.393s17.2 38.393 38.393 38.393z" />
<glyph unicode="&#xe902;" glyph-name="office" horiz-adv-x="818" d="M677.747 64.075h-537.495c-21.231 0-38.393 17.2-38.393 38.393v652.673c0 42.347 34.438 76.785 76.785 76.785h460.71c42.347 0 76.785-34.438 76.785-76.785v-652.673c0-21.193-17.161-38.393-38.393-38.393zM639.355 755.14h-460.71v-614.28h153.57v76.785h153.57v-76.785h153.57v614.28zM447.392 371.215h115.178v-76.785h-115.178v76.785zM447.392 523.595h115.178v-75.595h-115.178v75.595zM447.392 678.355h115.178v-76.785h-115.178v76.785zM255.43 371.215h115.178v-76.785h-115.178v76.785zM255.43 524.785h115.178v-76.785h-115.178v76.785zM255.43 678.355h115.178v-76.785h-115.178v76.785z" />
<glyph unicode="&#xe903;" glyph-name="place" horiz-adv-x="818" d="M431.209 71.216c-6.68-4.761-14.436-7.141-22.191-7.141-7.794 0-15.549 2.38-22.191 7.141-11.633 8.254-285.064 206.321-283.989 453.761 0 169.157 137.368 306.948 306.18 306.948 168.773 0 306.142-137.791 306.142-307.14 1.113-247.248-272.318-445.315-283.951-453.569zM409.018 755.14c-126.657 0-229.626-103.314-229.626-230.355-0.806-170.501 167.967-323.534 229.626-373.751 61.697 50.179 230.393 203.173 229.587 373.559 0 127.233-102.969 230.547-229.587 230.547zM255.947 524.785c0 84.694 68.646 153.57 153.071 153.57s153.071-68.876 153.071-153.57c0-84.694-68.646-153.57-153.071-153.57s-153.071 68.876-153.071 153.57zM485.535 524.785c0 42.347-34.323 76.785-76.516 76.785-42.232 0-76.555-34.438-76.555-76.785s34.323-76.785 76.555-76.785c42.193 0 76.516 34.438 76.516 76.785z" />
<glyph unicode="&#xe904;" glyph-name="user" horiz-adv-x="921" d="M537.285 371.216h-153.57c-148.195 0-268.748-120.552-268.748-268.748v-38.393h76.785v38.393c0 105.963 85.999 191.963 191.963 191.963h153.57c105.963 0 191.963-85.999 191.963-191.963v-38.393h76.785v38.393c0 148.195-120.552 268.748-268.748 268.748zM460.5 831.926c-105.963 0-191.963-85.999-191.963-191.963s85.999-191.963 191.963-191.963c105.963 0 191.963 85.999 191.963 191.963s-85.999 191.963-191.963 191.963zM541.893 558.571c-5.375-4.991-10.75-9.982-16.893-14.205-3.071-1.92-6.527-3.839-9.598-5.759-9.598-4.991-20.348-9.214-31.482-11.518-7.679-1.536-15.357-2.304-23.419-2.304s-15.741 0.768-23.419 2.304c-11.134 2.304-21.884 6.527-31.482 11.518-3.071 1.92-6.527 3.839-9.598 5.759-6.143 4.223-11.518 9.214-16.893 14.205-20.732 21.116-33.785 49.526-33.785 81.392s13.053 60.276 33.785 81.392c5.375 5.375 10.75 9.982 16.893 14.205 3.071 1.92 6.527 3.839 9.598 5.759 9.598 5.029 20.348 9.214 31.482 11.518 7.679 1.536 15.357 2.304 23.419 2.304s15.741-0.768 23.419-2.304c11.134-2.304 21.884-6.488 31.482-11.518 3.071-1.92 6.527-3.839 9.598-5.759 6.143-4.223 11.518-8.83 16.893-14.205 20.732-21.116 33.785-49.526 33.785-81.392s-13.053-60.276-33.785-81.392z" />
<glyph unicode="&#xe905;" glyph-name="warning" d="M512 64.075c-211.696 0-383.925 172.229-383.925 383.925s172.229 383.925 383.925 383.925c211.696 0 383.925-172.229 383.925-383.925s-172.229-383.925-383.925-383.925zM512 755.14c-169.349 0-307.14-137.791-307.14-307.14s137.791-307.14 307.14-307.14c169.349 0 307.14 137.791 307.14 307.14s-137.791 307.14-307.14 307.14zM473.608 486.392h76.785v-230.355h-76.785v230.355zM473.608 639.962h76.785v-76.785h-76.785v76.785z" />
<glyph unicode="&#xe906;" glyph-name="call-icon" d="M819.010 486.392c0 155.874-113.219 268.748-269.016 268.748v76.785c197.261 0 345.763-148.579 345.763-345.533h-76.747zM550.34 601.57v76.785c123.777 0 191.886-68.147 191.886-191.963h-76.747c0 80.739-34.438 115.178-115.139 115.178zM401.492 513.267c8.446-28.027 27.604-81.008 61.006-114.755 33.785-33.44 86.345-52.636 114.755-61.082l61.39 61.082c14.973 14.935 39.122 14.935 54.095 0l153.532-153.608c14.935-14.973 14.935-39.16 0-54.133l-104.005-104.044c-14.589-14.589-33.785-22.652-54.133-22.652h-0.729c-54.901 0.768-244.483 15.357-394.137 165.088s-164.243 339.39-165.011 394.291c-0.384 20.348 8.062 40.312 22.652 54.901l104.005 104.044c14.167 14.589 39.89 14.589 54.095 0l153.493-153.57c14.973-14.973 14.973-39.16 0-54.133l-61.006-61.428zM282.13 701.007l-77.131-76.785c0.768-47.223 13.437-211.543 142.359-340.925 128.96-128.615 292.82-141.668 340.388-142.436l77.131 77.169-99.36 99.053-49.526-49.526c-9.214-9.214-22.229-13.053-34.899-10.366-4.223 0.768-108.996 23.419-172.689 87.151-63.693 63.77-86.345 168.543-87.113 172.766-2.687 12.67 1.152 25.723 10.366 34.937l49.488 49.91-99.014 99.053z" />
<glyph unicode="&#xe907;" glyph-name="whatsapp-icon" d="M784.068 720.49c-72.178 71.986-168.198 111.607-270.475 111.684-210.736 0-382.313-170.808-382.389-380.738 0-67.11 17.584-132.608 51.024-190.35l-54.21-197.261 202.674 52.982c55.899-30.33 118.786-46.34 182.748-46.378h0.154c210.736 0 382.313 170.808 382.389 380.738 0 101.702-39.698 197.337-111.914 269.323zM513.593 134.697h-0.115c-57.051 0.038-112.951 15.242-161.786 44.151l-11.556 6.872-120.322-31.443 32.096 116.752-7.563 11.978c-31.789 50.371-48.567 108.612-48.567 168.428 0.077 174.456 142.628 316.431 317.967 316.431 84.886-0.038 164.665-32.979 224.673-92.795 59.969-59.854 93.025-139.326 92.987-223.905-0.077-174.456-142.667-316.469-317.813-316.469zM687.933 371.733c-9.56 4.799-56.514 27.796-65.306 30.944-8.715 3.187-15.050 4.761-21.461-4.722-6.373-9.521-24.686-30.944-30.253-37.279-5.605-6.373-11.172-7.141-20.732-2.38-9.521 4.761-40.312 14.82-76.823 47.184-28.41 25.224-47.568 56.36-53.174 65.92-5.567 9.56-0.576 14.666 4.223 19.427 4.3 4.223 9.56 11.095 14.32 16.662s6.335 9.521 9.521 15.856c3.225 6.373 1.651 11.94-0.806 16.662-2.38 4.799-21.5 51.638-29.447 70.681-7.717 18.467-15.626 15.971-21.5 16.24-5.529 0.269-11.902 0.346-18.275 0.346s-16.701-2.38-25.493-11.863c-8.792-9.56-33.44-32.557-33.44-79.357 0-46.839 34.246-92.104 39.007-98.477 4.799-6.335 67.379-102.393 163.245-143.626 22.805-9.79 40.619-15.664 54.479-20.079 22.844-7.218 43.691-6.181 60.161-3.762 18.352 2.726 56.514 22.997 64.499 45.226 7.947 22.229 7.947 41.272 5.567 45.226-2.38 3.993-8.792 6.412-18.313 11.172z" />
<glyph unicode="&#xe908;" glyph-name="write" d="M853.387 614.547l-322.843-321.537c-5.068-4.645-11.326-8.562-18.352-10.136l-156.334-38.93c-3.11-0.768-6.258-1.152-9.368-1.152-10.174 0-20.31 3.878-27.758 11.287-9.752 9.752-13.668 23.765-10.174 37.010l39.084 155.682c1.574 7.026 5.106 13.245 10.174 18.313l322.804 321.576c29.716 29.178 80.893 29.178 110.609 0l62.157-61.927c14.436-14.781 22.652-34.246 22.652-54.901 0-21.001-8.216-40.466-22.652-55.285zM420.742 417.593l-20.732-82.544 82.889 20.655 197.721 197.337-61.735 61.505-198.144-196.954zM736.136 730.953l-62.157-61.505 62.157-61.505 61.735 61.505-61.735 61.505zM226.13 710.336v-545.020h116.406c1.344-0.038 2.611-0.384 3.916-0.384 0.998 0 2.073 0.384 3.071 0.384h423.738v259.572l78.167 77.86v-337.432c0-42.923-35.091-77.86-78.167-77.86h-547.132c-43.115 0-78.167 34.937-78.167 77.86v545.020c0 42.923 35.052 77.86 78.167 77.86h345.724l-78.167-77.86h-267.557z" />
<glyph unicode="&#xe909;" glyph-name="arrow-down" horiz-adv-x="1609" d="M1354.608 886.565l-550.034-528.677-550.181 528.677-181.248-174.080 731.429-703.049 731.282 703.049-181.248 174.080z" />
<glyph unicode="&#xe90a;" glyph-name="arrow-up" horiz-adv-x="1609" d="M1244.637 119.077l-440.174 396.581-440.101-396.581-144.969 130.56 585.070 527.287 585.143-527.287-144.969-130.56z" />
<glyph unicode="&#xe90b;" glyph-name="consulting-icon" d="M993.984-64c-6.88 0-13.696 2.368-19.2 6.976l-184.448 153.696h-358.656c-96.608 0-174.624 78.176-174.624 174.592v82.464h-23.392l-184.448-153.696c-19.808-16.512-49.216-2.048-49.216 23.040v562.336c0 96.576 78.176 174.592 174.592 174.592h417.728c96.608 0 174.624-78.144 174.624-174.592v-50.336h82.432c96.608 0 174.624-78.176 174.624-174.624v-594.432c0-16.64-13.504-30.016-30.016-30.016zM706.944 785.408c0 63.392-51.328 114.624-114.624 114.624h-417.728c-63.392 0-114.592-51.328-114.592-114.624v-498.272l143.584 119.648c5.408 4.512 12.192 6.944 19.2 6.944h369.536c63.2 0 114.624 51.424 114.624 114.592v257.088zM964 560.448c0 30.656-11.936 59.424-33.568 81.056-21.664 21.632-50.432 33.568-81.056 33.568h-82.464v-100.672h66.4c16.576 0 30.016-13.408 30.016-29.984s-13.44-30.016-30.016-30.016h-66.944c-1.952-24.608-9.024-47.808-20.192-68.512h87.136c16.576 0 30.016-13.44 30.016-30.016s-13.44-29.984-30.016-29.984h-140.16c-28.512-20.256-63.296-32.16-100.832-32.16h-275.264v-82.464c0-30.592 11.904-59.392 33.568-81.024 21.632-21.664 50.432-33.568 81.024-33.568h369.536c7.040 0 13.824-2.496 19.2-6.944l143.616-119.68v530.4zM417.728 287.36c0 16.512 13.44 29.984 29.984 29.984h385.6c16.576 0 30.016-13.472 30.016-29.984 0-16.576-13.44-30.016-30.016-30.016h-385.6c-16.544 0-29.984 13.44-29.984 30.016zM413.472 614.944v-6.272c0-16.576-13.44-30.016-30.016-30.016s-29.984 13.44-29.984 30.016v32.128c0 16.576 13.408 29.984 29.984 29.984 27.744 0 50.336 22.592 50.336 50.336 0 27.776-22.592 50.336-50.336 50.336-13.472 0-26.080-5.216-35.584-14.72s-14.752-22.144-14.752-35.584c0-16.576-13.44-29.984-29.984-29.984-16.576 0-30.016 13.408-30.016 29.952v0.064c0 29.44 11.488 57.152 32.32 77.984s48.544 32.32 77.984 32.32c60.864 0 110.368-49.504 110.368-110.368 0-50.4-34.016-93.056-80.32-106.176zM383.456 542.272c16.576 0 30.016-13.44 30.016-30.016 0-16.544-13.44-29.984-30.016-29.984s-29.984 13.44-29.984 29.984c0 16.576 13.408 30.016 29.984 30.016z" />
<glyph unicode="&#xe90c;" glyph-name="drop-icon" horiz-adv-x="832" d="M636.096 112.192c-88.832-106.304-176.896-167.040-180.608-169.6-6.4-4.352-13.696-6.528-20.992-6.528-7.36 0-14.72 2.176-21.056 6.528-3.712 2.56-91.84 63.296-180.608 169.6-107.456 128.768-182.080 284.032-182.080 455.296 0 216.448 172.16 392.576 383.744 392.576s383.68-176.128 383.68-392.576c0-171.264-74.624-326.528-182.080-455.296zM434.496 880.064c-169.28 0-307.008-140.224-307.008-312.576 0-280.448 234.56-485.568 307.008-542.272 164.352 128.384 306.944 326.912 306.944 542.272 0 172.352-137.728 312.576-306.944 312.576zM434.496 367.488c-105.856 0-191.936 89.792-191.936 200 0 110.336 86.080 200 191.936 200 105.728 0 191.808-89.664 191.808-200 0-110.208-86.080-200-191.808-200zM434.496 687.552c-63.488 0-115.136-53.888-115.136-120.064 0-66.112 51.648-120 115.136-120 63.424 0 115.072 53.888 115.072 120 0 66.176-51.648 120.064-115.072 120.064z" />
<glyph unicode="&#xe90d;" glyph-name="facebook-icon" horiz-adv-x="512" d="M333.084-63.943v467.115h150.3l22.528 182.044h-172.828v116.224c0 52.736 13.995 88.633 86.528 88.633l92.388 0.057v162.873c-15.986 2.162-70.827 7.111-134.599 7.111-133.291 0-224.54-84.878-224.54-240.64v-134.258h-150.756v-182.044h150.756v-467.115h180.224z" />
<glyph unicode="&#xe90e;" glyph-name="instagram-icon" horiz-adv-x="1081" d="M719.019-63.943h-382.464c-176.014 0-318.748 143.303-318.748 320v384c0 176.697 142.734 320 318.748 320h382.464c176.014 0 318.692-143.303 318.692-320v-384c0-176.697-142.677-320-318.692-320zM942.137 640.057c0 123.506-100.124 223.972-223.118 223.972h-382.464c-123.051 0-223.118-100.466-223.118-223.972v-384c0-123.506 100.068-223.972 223.118-223.972h382.464c122.994 0 223.118 100.466 223.118 223.972v384zM801.849 689.152c-18.716 0-33.963 15.303-33.963 34.133s15.246 34.076 33.963 34.076c18.773 0 34.020-15.246 34.020-34.076s-15.246-34.133-34.020-34.133zM527.758 192.057c-140.8 0-254.976 114.631-254.976 256s114.176 256 254.976 256c140.8 0 254.976-114.631 254.976-256s-114.176-256-254.976-256zM527.758 608.085c-87.836 0-159.346-71.737-159.346-160.028 0-88.178 71.509-159.972 159.346-159.972s159.403 71.794 159.403 159.972c0 88.292-71.566 160.028-159.403 160.028z" />
<glyph unicode="&#xe90f;" glyph-name="mail-icon" horiz-adv-x="1317" d="M1185.129 960h-1053.257c-72.631 0-131.657-57.417-131.657-128v-768c0-70.583 59.026-128 131.657-128h1053.257c72.631 0 131.657 57.417 131.657 128v768c0 70.583-59.026 128-131.657 128zM1185.129 832v-32.695l-526.629-398.263-526.629 398.19v32.768h1053.257zM131.872 64v573.147l486.181-367.616c11.849-9.070 26.185-13.531 40.448-13.531s28.599 4.462 40.448 13.531l486.181 367.616 0.146-573.147h-1053.403z" />
<glyph unicode="&#xe910;" glyph-name="offers-icon" horiz-adv-x="964" d="M869.256 480.105c-3.795-7.951-3.795-17.047 0-24.937l35.117-73.728c19.516-40.96 4.036-89.871-35.238-111.315l-70.656-38.43c-7.59-4.156-12.83-11.505-14.276-20.239l-13.854-80.776c-7.65-44.936-48.188-75.174-92.28-68.789l-79.149 11.505c-8.493 1.205-16.986-1.566-23.13-7.77l-57.464-57.043c-16.023-15.842-36.563-23.793-57.043-23.793-20.54 0-41.080 7.951-57.043 23.793l-57.464 57.043c-6.204 6.204-14.637 8.975-23.13 7.77l-79.149-11.505c-3.976-0.602-7.891-0.843-11.746-0.843-39.334 0-73.547 28.732-80.595 69.632l-13.794 80.776c-1.446 8.734-6.686 16.083-14.336 20.239l-70.596 38.43c-39.273 21.444-54.814 70.355-35.238 111.315l35.117 73.728c3.795 7.891 3.795 16.986 0 24.937l-35.117 73.728c-19.516 41.020-4.036 89.931 35.238 111.315l70.596 38.43c7.65 4.156 12.89 11.565 14.336 20.239l13.794 80.836c7.71 44.936 48.248 75.113 92.341 68.789l79.089-11.565c8.553-1.205 16.986 1.566 23.191 7.71l57.464 57.103c31.985 31.744 82.101 31.744 114.086 0l57.464-57.103c6.144-6.144 14.637-8.915 23.13-7.71l79.149 11.565c44.032 6.325 84.631-23.853 92.28-68.789l13.854-80.836c1.446-8.674 6.686-16.083 14.276-20.239l70.656-38.43c39.273-21.384 54.754-70.295 35.238-111.315l-35.117-73.728zM820.525 504.621l35.057 73.668c6.626 13.854 1.385 30.419-11.927 37.647l-70.596 38.43c-22.528 12.288-37.948 34.033-42.345 59.874l-13.794 80.715c-2.65 15.3-16.324 25.419-31.262 23.311l-79.089-11.505c-25.239-3.674-50.236 4.698-68.548 22.829l-57.464 57.043c-10.782 10.722-27.768 10.722-38.611 0l-57.404-57.043c-18.312-18.131-43.309-26.504-68.548-22.829l-79.149 11.505c-14.878 2.108-28.612-8.011-31.202-23.311l-13.794-80.715c-4.397-25.841-19.878-47.586-42.345-59.874l-70.596-38.43c-13.312-7.228-18.552-23.793-11.927-37.647l35.057-73.668c11.204-23.492 11.204-50.477 0-73.969l-35.057-73.668c-6.626-13.854-1.385-30.419 11.927-37.647l70.596-38.43c22.468-12.288 37.948-34.033 42.345-59.814l13.794-80.776c2.59-15.24 16.324-25.419 31.202-23.311l79.149 11.505c3.915 0.602 7.831 0.843 11.686 0.843 21.143 0 41.382-8.312 56.862-23.672l57.404-57.043c10.842-10.722 27.829-10.722 38.611 0l57.464 57.043c18.312 18.191 43.309 26.504 68.548 22.829l79.089-11.505c14.938-2.108 28.612 8.072 31.262 23.311l13.794 80.776c4.397 25.781 19.817 47.526 42.345 59.814l70.596 38.43c13.312 7.228 18.552 23.793 11.927 37.647l-35.057 73.668c-11.204 23.492-11.204 50.477 0 73.969zM569.826 216.998c-54.874 0-99.509 45.839-99.509 102.099 0 56.32 44.634 102.159 99.509 102.159s99.509-45.839 99.509-102.159c0-56.26-44.634-102.099-99.509-102.099zM569.826 365.538c-24.937 0-45.237-20.841-45.237-46.441 0-25.54 20.299-46.381 45.237-46.381s45.237 20.841 45.237 46.381c0 25.6-20.299 46.441-45.237 46.441zM301.357 264.222c-5.301-5.481-12.288-8.192-19.215-8.192s-13.854 2.711-19.155 8.192c-10.601 10.842-10.601 28.431 0 39.334l358.219 367.556c10.601 10.903 27.768 10.903 38.37 0 10.601-10.842 10.601-28.491 0-39.394l-358.219-367.496zM352.738 514.018c-54.874 0-99.569 45.839-99.569 102.159 0 56.26 44.695 102.099 99.569 102.099 54.814 0 99.509-45.839 99.509-102.099 0-56.32-44.695-102.159-99.509-102.159zM352.738 662.558c-24.998 0-45.237-20.781-45.237-46.381s20.239-46.441 45.237-46.441c24.937 0 45.237 20.841 45.237 46.441s-20.299 46.381-45.237 46.381z" />
<glyph unicode="&#xe911;" glyph-name="offices-icon" horiz-adv-x="768" d="M568.345 140.928c-81.203-97.229-161.741-152.781-165.12-155.085-5.837-3.994-12.544-5.939-19.251-5.939-6.656 0-13.363 1.946-19.2 5.939-3.43 2.304-83.917 57.856-165.12 155.085-98.253 117.709-166.502 259.635-166.502 416.307 0 197.837 157.389 358.861 350.822 358.861 193.485 0 350.874-161.024 350.874-358.861 0-156.672-68.301-298.598-166.502-416.307zM383.974 842.931c-154.726 0-280.627-128.154-280.627-285.696 0-256.461 214.426-444.058 280.678-495.821 150.272 117.35 280.627 298.803 280.627 495.821 0 157.542-125.901 285.696-280.678 285.696zM383.974 374.349c-96.717 0-175.411 82.074-175.411 182.886 0 100.762 78.694 182.784 175.411 182.784 96.768 0 175.462-82.022 175.462-182.784 0-100.813-78.694-182.886-175.462-182.886zM383.974 666.906c-58.010 0-105.216-49.203-105.216-109.67 0-60.518 47.206-109.722 105.216-109.722 58.061 0 105.267 49.203 105.267 109.722 0 60.467-47.206 109.67-105.267 109.67z" />
<glyph unicode="&#xe912;" glyph-name="phone-icon" horiz-adv-x="832" d="M617.632 112.128c-88.832-106.304-176.896-167.040-180.608-169.6-6.4-4.352-13.696-6.528-20.992-6.528-7.36 0-14.72 2.176-21.056 6.528-3.712 2.56-91.84 63.296-180.608 169.6-107.456 128.768-182.080 284.032-182.080 455.296 0 216.448 172.16 392.576 383.744 392.576s383.68-176.128 383.68-392.576c0-171.264-74.624-326.528-182.080-455.296zM416.032 880c-169.28 0-307.008-140.224-307.008-312.576 0-280.448 234.56-485.568 307.008-542.272 164.352 128.384 306.944 326.912 306.944 542.272 0 172.352-137.728 312.576-306.944 312.576zM416.032 367.424c-105.856 0-191.936 89.792-191.936 200 0 110.336 86.080 200 191.936 200 105.728 0 191.808-89.664 191.808-200 0-110.208-86.080-200-191.808-200zM416.032 687.488c-63.488 0-115.136-53.888-115.136-120.064 0-66.112 51.648-120 115.136-120 63.424 0 115.072 53.888 115.072 120 0 66.176-51.648 120.064-115.072 120.064z" />
<glyph unicode="&#xe913;" glyph-name="phoneinf-icon" horiz-adv-x="922" d="M874.622 422.383c-14.234 0-25.754 12.237-25.754 27.443 0 226.714-173.21 411.136-386.15 411.136-14.182 0-25.702 12.288-25.702 27.392 0 15.155 11.52 27.443 25.702 27.443 241.92 0 437.658-208.435 437.658-465.971 0-15.206-11.52-27.443-25.754-27.443zM462.718 806.127c184.576 0 334.694-159.846 334.694-356.301 0-15.206-11.571-27.443-25.754-27.443-14.234 0-25.754 12.237-25.754 27.443 0 166.195-127.027 301.517-283.187 301.517-14.182 0-25.702 12.237-25.702 27.392s11.52 27.392 25.702 27.392zM462.718 586.837c71.014 0 128.717-61.44 128.717-137.011 0-15.206-11.52-27.443-25.702-27.443-14.234 0-25.754 12.237-25.754 27.443 0 45.312-34.662 82.227-77.261 82.227-14.182 0-25.702 12.237-25.702 27.392s11.52 27.392 25.702 27.392zM462.718 696.457c127.795 0 231.731-110.592 231.731-246.63 0-15.206-11.571-27.443-25.754-27.443-14.234 0-25.754 12.237-25.754 27.443 0 105.779-80.845 191.846-180.224 191.846-14.182 0-25.702 12.288-25.702 27.443s11.52 27.341 25.702 27.341zM311.729 556.783c-22.835-24.371-22.835-63.795 0-88.115l172.698-179.507c0-0.051 0-0.051 0-0.051 22.886-24.32 59.904-24.32 82.739 0l49.664 52.89c30.157 32.154 79.002 32.102 109.21 0 0.102-0.102 0.205-0.256 0.307-0.307l108.749-119.859c29.901-32.051 29.85-84.070-0.205-116.070-0.563-0.614-39.168-38.451-39.731-39.014-109.056-115.661-284.877-115.251-393.472 0.358l-298.445 313.446c-108.851 115.917-108.8 303.462 0 419.328 0 0 3.328 3.482 3.328 3.533 0-0.051 36.403 38.758 36.403 38.758 30.106 32 79.104 32 109.21 0l109.21-116.275c30.106-32.051 30.106-84.224 0-116.326l-49.664-52.787zM798.795 144.828c9.728 10.752 9.626 27.904-0.307 38.451-0.205 0.256-108.8 119.859-109.005 120.064-10.035 10.598-26.214 10.547-36.25-0.102l-18.227-19.405 146.483-155.955 17.306 16.947zM125.463 744.533c-73.882-94.464-69.888-235.725 14.182-325.222l298.445-313.395c84.019-89.498 215.808-94.413 305.459-15.155l-145.101 154.522c-43.264-40.653-109.107-38.861-150.374 5.018l-172.698 179.558c-41.267 43.93-42.803 114.227-4.813 160.154l-145.101 154.522zM324.99 687.087l-109.21 116.326c-10.035 10.701-26.368 10.701-36.403 0l-18.227-19.405 145.664-155.034 18.176 19.354c10.086 10.752 10.086 28.109 0 38.758z" />
<glyph unicode="&#xe914;" glyph-name="report-icon" horiz-adv-x="896" d="M806.544-64h-717.088c-49.376 0-89.632 40.32-89.632 90.016v539.968c0 0 0 0.032 0 0.064 0 7.424 2.848 15.072 8.448 20.832 0.096 0.128 0.192 0.224 0.288 0.352l110.784 111.2v231.584c0 16.576 13.376 29.984 29.856 29.984h597.568c16.512 0 29.888-13.408 29.888-29.984v-231.584l110.752-111.2c5.632-5.664 8.736-13.44 8.768-21.184 0-0.032 0-0.064 0-0.064v-539.968c0-49.6-40.16-90.016-89.632-90.016zM794.16-4l-239.040 240h-214.272l-239.008-240h692.32zM119.344 613.568l-47.392-47.584 47.392-47.552v95.136zM59.568 493.6v-455.168l226.656 227.552-226.656 227.616zM716.88 685.984c0 0.032 0 0.032 0 0.032v214.016h-537.792v-214.016c0 0 0 0 0-0.032v-227.552l161.76-162.4h214.272l161.76 162.4v227.552zM776.656 613.568v-95.136l47.392 47.552-47.392 47.584zM836.4 493.6l-226.656-227.616 226.656-227.552v455.168zM367.664 503.584c44.32-28.512 99.264-31.232 150.784-7.392 15.008 6.912 32.736 0.32 39.648-14.752 6.88-15.040 0.32-32.864-14.656-39.776-70.464-32.544-146.272-28.32-208 11.424-60.48 38.88-96.576 105.024-96.576 176.928 0 115.776 93.824 209.984 209.12 209.984 115.328 0 209.152-94.208 209.152-209.984 0-49.632-40.224-89.984-89.632-89.984-22.944 0-43.872 8.672-59.776 22.976-15.84-14.304-36.8-22.976-59.744-22.976-49.408 0-89.632 40.352-89.632 89.984s40.224 89.984 89.632 89.984c49.44 0 89.632-40.352 89.632-89.984 0-0.16 0-0.32 0-0.48 0.768-18.080 14.848-29.536 29.888-29.536 16.48 0 29.888 13.472 29.888 30.016 0 82.72-67.008 149.984-149.408 149.984-82.368 0-149.376-67.264-149.376-149.984 0-51.36 25.824-98.624 69.056-126.432zM447.984 660c-16.448 0-29.888-13.44-29.888-29.984s13.44-30.016 29.888-30.016c14.848 0 27.168 10.944 29.472 25.184-0.32 2.752-0.224 5.536 0.224 8.256-1.728 14.944-14.368 26.56-29.696 26.56z" />
<glyph unicode="&#xe915;" glyph-name="send-icon" d="M30.83 499.408l916.42 454.295c18.854 9.276 41.141 6.385 57.224-7.59 16.083-13.914 23.070-36.322 18.010-57.525l-79.209-334.125-404.299-106.436 404.299-106.496 79.209-334.065c5.12-21.263-1.928-43.731-18.010-57.645-9.879-8.493-21.986-12.89-34.274-12.89-7.77 0-15.601 1.747-22.95 5.361l-916.42 454.355c-18.914 9.336-30.961 29.335-30.961 51.381 0 21.986 12.047 41.984 30.961 51.381z" />
<glyph unicode="&#xe916;" glyph-name="snapchat-icon" horiz-adv-x="1216" d="M1132.096 195.392c-153.408 24.064-222.528 173.632-225.344 179.968-0.192 0.384-0.32 0.768-0.64 1.216-7.808 15.168-9.664 27.648-5.376 37.184 8.384 18.688 40.512 28.352 61.76 34.816 6.208 1.792 11.968 3.584 16.768 5.376 20.992 7.872 35.904 16.384 45.76 25.984 11.776 11.52 14.080 22.592 13.952 29.76-0.384 17.472-14.464 33.088-36.864 40.64-7.552 2.944-16.256 4.48-24.96 4.48-5.952 0-14.848-0.704-23.232-4.48-17.984-8-33.984-12.416-47.872-12.992-7.296 0.32-12.48 1.856-15.808 3.328 0.384 6.784 0.832 13.824 1.344 21.056l0.192 3.136c4.928 73.92 11.072 165.888-14.592 220.48-17.6 37.44-41.216 69.568-70.272 95.68-24.256 21.888-52.544 39.552-83.968 52.672-54.592 22.976-105.472 26.368-131.008 26.368h-0.064c-1.024 0-1.984 0-2.816 0-7.104-0.064-18.624-0.192-19.712-0.192-25.472 0-76.48-3.456-131.2-26.368-31.36-13.056-59.456-30.784-83.712-52.608-28.864-26.112-52.416-58.176-69.888-95.488-25.664-54.528-19.584-146.496-14.72-220.352v-0.128c0.512-7.936 1.088-16.192 1.6-24.192-3.776-1.6-9.856-3.392-18.816-3.392-14.464 0-31.68 4.416-51.136 13.056-5.76 2.56-12.288 3.84-19.456 3.84-11.52 0-23.808-3.264-34.304-9.152-13.376-7.488-21.952-17.92-24.32-29.568-1.536-7.68-1.472-22.848 16.32-38.336 9.856-8.384 24.192-16.256 42.752-23.232 4.864-1.856 10.688-3.584 16.768-5.376 21.248-6.464 53.44-16.128 61.824-34.816 4.224-9.536 2.368-22.016-5.44-37.184-0.192-0.448-0.448-0.832-0.576-1.216-1.984-4.352-20.288-43.584-57.792-85.056-21.312-23.552-44.736-43.328-69.696-58.56-30.528-18.752-63.424-30.848-97.92-36.224-13.568-2.176-23.232-13.632-22.464-26.624 0.256-3.776 1.152-7.552 2.816-11.136v-0.064c5.504-12.224 18.24-22.592 38.848-31.68 25.28-11.072 62.976-20.416 112.256-27.776 2.496-4.48 5.12-15.744 6.912-23.424 1.856-8.192 3.776-16.64 6.592-25.664 3.008-9.664 10.752-21.248 30.784-21.248 7.552 0 16.256 1.664 26.368 3.456 14.784 2.752 35.008 6.464 60.16 6.464 14.016 0 28.48-1.152 43.072-3.456 28.096-4.416 52.352-20.672 80.384-39.488 41.024-27.648 87.488-58.816 158.464-58.816 1.984 0 3.904 0.064 5.824 0.192 2.304-0.128 5.248-0.192 8.256-0.192 71.040 0 117.504 31.168 158.528 58.752l0.064 0.064c28.032 18.752 52.288 34.944 80.384 39.424 14.592 2.304 29.056 3.52 43.008 3.52 24.128 0 43.2-2.944 60.224-6.144 11.072-1.984 19.712-3.008 26.368-3.008h1.28c14.656 0 25.408 7.616 29.504 20.928 2.688 8.832 4.672 17.024 6.592 25.344 1.664 7.296 4.352 18.88 6.784 23.424 49.28 7.36 87.040 16.64 112.256 27.776 20.608 9.024 33.28 19.392 38.784 31.552 1.664 3.584 2.688 7.296 2.88 11.2 0.832 12.928-8.896 24.448-22.464 26.496z" />
<glyph unicode="&#xe917;" glyph-name="track-icon" horiz-adv-x="896" d="M871.568-55.456c-15.392-9.984-34.592-11.456-51.296-3.84l-0.64 0.256-104 50.080-103.2-50.912c-13.184-5.568-28.32-5.568-41.504-0.064l-123.040 51.392-125.952-51.552c-6.528-2.72-13.44-4.064-20.32-4.064-7.072 0-14.144 1.44-20.896 4.288l-1.408 0.64-103.136 50.208-100.096-50.144c-16.736-7.712-35.968-6.368-51.488 3.616-15.488 9.984-24.768 26.976-24.768 45.504v891.168c0 43.584 35.328 79.040 78.72 79.040h738.944c43.392 0 78.688-35.456 78.688-79.040v-891.168c0-18.432-9.184-35.392-24.608-45.408zM836.432 881.12c0 10.464-8.512 19.008-18.944 19.008h-738.944c-10.464 0-18.944-8.544-18.944-19.008v-881.472l94.112 47.104c7.104 3.296 14.784 4.928 22.464 4.928 7.136 0 14.24-1.408 20.896-4.224l1.44-0.64 103.392-50.336 125.696 51.488c13.248 5.408 27.808 5.376 40.992-0.128l122.752-51.328 103.36 51.008c13.728 5.792 29.408 5.6 42.976-0.544l0.64-0.32 98.112-47.2v881.664zM113.968 298.048c0 16.576 13.376 29.984 29.856 29.984h611.328c16.512 0 29.888-13.408 29.888-29.984s-13.376-30.016-29.888-30.016h-611.328c-16.48 0-29.856 13.44-29.856 30.016zM755.152 364.384h-611.328c-16.48 0-29.856 13.44-29.856 30.016 0 16.544 13.376 29.984 29.856 29.984h611.328c16.512 0 29.888-13.44 29.888-29.984 0-16.576-13.376-30.016-29.888-30.016zM439.952 640.448h258.752c21.12 0 38.336-17.248 38.336-38.464v-76.832c0-21.216-17.216-38.496-38.336-38.496h-258.752c-21.12 0-38.304 17.248-38.304 38.496v76.832c0 21.216 17.184 38.464 38.304 38.464zM461.392 546.688h215.872v33.76h-215.872v-33.76zM431.504 744.608h272c16.512 0 29.888-13.44 29.888-30.016 0-16.544-13.376-29.984-29.888-29.984h-272c-16.48 0-29.856 13.44-29.856 29.984 0 16.576 13.376 30.016 29.856 30.016zM755.152 788.32h-323.648c-16.48 0-29.856 13.44-29.856 29.984 0 16.608 13.376 30.048 29.856 30.048h323.648c16.512 0 29.888-13.44 29.888-30.048 0-16.544-13.376-29.984-29.888-29.984zM315.568 486.656h-158.752c-23.648 0-42.848 19.328-42.848 43.072v275.52c0 23.776 19.2 43.104 42.848 43.104h158.752c23.616 0 42.848-19.328 42.848-43.104v-275.52c0-23.744-19.232-43.072-42.848-43.072zM298.672 788.32h-124.96v-241.632h124.96v241.632zM143.824 232.096h374.368c16.512 0 29.888-13.44 29.888-30.016 0-16.544-13.376-30.016-29.888-30.016h-374.368c-16.48 0-29.856 13.472-29.856 30.016 0 16.576 13.376 30.016 29.856 30.016z" />
<glyph unicode="&#xe918;" glyph-name="twitter-icon" horiz-adv-x="1390" d="M1351.095 838.949c-48.274-20.626-100.059-34.597-154.478-40.741 55.589 31.963 98.085 82.725 118.272 142.994-52.151-29.623-109.714-51.2-170.935-62.83-49.152 50.322-118.93 81.701-196.389 81.701-148.553 0-269.019-115.785-269.019-258.487 0-20.261 2.414-40.082 6.949-58.953-223.525 10.825-421.742 113.737-554.423 270.19-23.186-38.107-36.352-82.578-36.352-129.975 0-89.746 47.543-168.887 119.662-215.259-44.105 1.463-85.577 13.093-121.856 32.475v-3.218c0-125.294 92.745-229.742 215.698-253.586-22.528-5.851-46.299-9.070-70.875-9.070-17.335 0-34.158 1.682-50.615 4.827 34.231-102.766 133.559-177.518 251.246-179.566-92.014-69.339-208.018-110.519-334.117-110.519-21.65 0-43.081 1.17-64.146 3.511 119.077-73.509 260.462-116.37 412.379-116.37 494.811 0 765.294 394.021 765.294 735.744l-0.878 33.499c52.882 36.206 98.597 81.774 134.583 133.632z" />
<glyph unicode="&#xe919;" glyph-name="youtube-icon" horiz-adv-x="1536" d="M1470.293 872.192c-55.296 62.464-157.184 87.893-351.915 87.893h-706.901c-199.168 0-302.848-27.051-357.888-93.525-53.589-64.853-53.589-160.341-53.589-292.437v-251.989c0-256.085 63.659-386.048 411.477-386.048h706.901c168.875 0 262.4 22.528 322.901 77.568 62.123 56.491 88.576 148.821 88.576 308.48v251.989c0 139.349-4.096 235.349-59.563 298.069zM982.187 413.355l-320.939-159.573c-7.168-3.584-15.019-5.376-22.869-5.376-8.875 0-17.749 2.304-25.6 6.827-14.763 8.448-23.808 23.723-23.808 40.107v318.123c0 16.384 9.045 31.573 23.723 40.107 14.763 8.533 33.109 9.045 48.384 1.536l321.024-158.464c16.299-8.107 26.539-24.149 26.624-41.643 0-17.493-10.24-33.536-26.539-41.643z" />
<glyph unicode="&#xe91a;" glyph-name="calenda-icon" horiz-adv-x="922" d="M819.4-64h-716.8c-56.474 0-102.4 45.926-102.4 102.4v716.8c0 56.474 45.926 102.4 102.4 102.4h102.4v102.4h102.4v-102.4h307.2v102.4h102.4v-102.4h102.4c56.474 0 102.4-45.926 102.4-102.4v-716.8c0-56.474-45.926-102.4-102.4-102.4zM819.4 652.8h-716.8v-614.4h716.851l-0.051 614.4zM307.4 396.8h-102.4v102.4h102.4v-102.4zM307.4 192h-102.4v102.4h102.4v-102.4zM512.2 396.8h-102.4v102.4h102.4v-102.4zM512.2 192h-102.4v102.4h102.4v-102.4zM717 396.8h-102.4v102.4h102.4v-102.4zM717 192h-102.4v102.4h102.4v-102.4z" />
<glyph unicode="&#xe91b;" glyph-name="author" d="M819.2 42.496v-4.096h-5.12c-85.504-64-189.952-102.4-302.080-102.4s-216.576 38.4-302.080 102.4h-5.12v4.096c-123.392 94.208-204.8 242.176-204.8 405.504 0 277.504 234.496 512 512 512s512-234.496 512-512c0-163.328-81.408-311.296-204.8-405.504zM512 38.4c72.704 0 141.312 20.48 201.216 54.784-15.36 69.12-76.8 120.832-150.016 120.832h-102.4c-73.216 0-134.656-51.712-150.016-120.832 59.904-34.304 128.512-54.784 201.216-54.784zM512 857.6c-222.208 0-409.6-187.392-409.6-409.6 0-111.616 47.104-214.016 122.368-288.768 38.912 92.16 130.048 157.184 236.032 157.184h102.4c105.984 0 197.12-65.024 236.032-157.184 75.264 74.752 122.368 177.152 122.368 288.768 0 222.208-187.392 409.6-409.6 409.6zM512 345.6c-116.736 0-204.8 88.064-204.8 204.8s88.064 204.8 204.8 204.8c116.736 0 204.8-88.064 204.8-204.8s-88.064-204.8-204.8-204.8zM512 652.8c-60.416 0-102.4-41.984-102.4-102.4s41.984-102.4 102.4-102.4c60.416 0 102.4 41.984 102.4 102.4s-41.984 102.4-102.4 102.4z" />
</font>
</defs>
</svg>
