<svg 
 xmlns="http://www.w3.org/2000/svg"
 xmlns:xlink="http://www.w3.org/1999/xlink"
 width="160px" height="45px">
<path fill-rule="evenodd"  fill="rgb(255, 255, 255)"
 d="M159.999,23.724 C160.037,24.557 159.739,24.723 158.998,24.723 C158.974,24.723 158.949,24.722 158.924,24.722 C158.013,24.710 157.101,24.707 156.190,24.707 C155.080,24.707 153.970,24.712 152.860,24.712 C151.564,24.712 150.269,24.705 148.974,24.676 C148.938,24.675 148.904,24.675 148.871,24.675 C147.873,24.675 147.679,25.033 147.687,25.995 C147.735,31.822 147.687,37.649 147.734,43.476 C147.742,44.401 147.491,44.707 146.645,44.707 C146.589,44.707 146.531,44.705 146.469,44.703 C145.568,44.665 144.665,44.646 143.762,44.646 C142.848,44.646 141.934,44.665 141.022,44.703 C140.959,44.705 140.899,44.707 140.842,44.707 C140.011,44.707 139.743,44.420 139.751,43.489 C139.798,37.585 139.750,31.680 139.798,25.776 C139.806,24.818 139.619,24.459 138.631,24.459 C138.593,24.459 138.555,24.459 138.515,24.460 C137.374,24.490 136.232,24.497 135.090,24.497 C134.000,24.497 132.910,24.490 131.820,24.490 C130.971,24.490 130.123,24.494 129.275,24.508 C129.253,24.509 129.231,24.509 129.210,24.509 C128.415,24.509 128.176,24.254 128.208,23.459 C128.267,21.985 128.271,20.505 128.207,19.032 C128.171,18.213 128.440,17.991 129.243,17.991 C129.254,17.991 129.265,17.991 129.276,17.991 C131.766,18.010 134.258,18.014 136.748,18.014 C139.181,18.014 141.613,18.010 144.046,18.010 C144.098,18.010 144.150,18.010 144.202,18.010 C146.667,18.010 149.132,18.015 151.596,18.015 C154.068,18.015 156.539,18.010 159.010,17.990 C159.022,17.990 159.034,17.990 159.045,17.990 C159.802,17.990 160.021,18.195 159.995,18.947 C159.939,20.538 159.926,22.134 159.999,23.724 ZM123.831,22.916 C123.883,23.772 123.640,24.031 122.754,24.031 C122.744,24.031 122.733,24.031 122.723,24.031 C119.884,24.012 117.046,24.011 114.207,24.011 C114.024,24.011 113.841,24.011 113.658,24.011 C110.399,24.011 107.142,24.011 103.884,23.982 C103.868,23.982 103.851,23.982 103.835,23.982 C102.809,23.982 102.553,24.274 102.585,25.279 C102.663,27.779 102.610,27.781 105.114,27.781 C107.840,27.781 110.567,27.786 113.293,27.786 C115.978,27.786 118.662,27.781 121.346,27.761 C121.362,27.761 121.378,27.761 121.393,27.761 C122.267,27.761 122.634,27.949 122.552,28.911 C122.457,30.029 122.477,31.166 122.549,32.288 C122.602,33.129 122.277,33.320 121.489,33.320 C121.481,33.320 121.472,33.320 121.464,33.320 C119.526,33.310 117.587,33.309 115.648,33.309 C114.606,33.309 113.564,33.309 112.522,33.309 C109.617,33.309 106.714,33.305 103.810,33.276 C103.794,33.276 103.778,33.276 103.763,33.276 C102.753,33.276 102.528,33.612 102.593,34.526 C102.665,35.532 102.645,36.547 102.596,37.555 C102.561,38.272 102.812,38.462 103.530,38.462 C103.537,38.462 103.544,38.462 103.551,38.462 C109.909,38.430 116.268,38.460 122.627,38.420 C122.641,38.420 122.655,38.420 122.670,38.420 C123.548,38.420 123.904,38.598 123.837,39.563 C123.743,40.917 123.772,42.283 123.830,43.641 C123.865,44.440 123.621,44.701 122.800,44.701 C122.788,44.701 122.776,44.701 122.764,44.701 C120.565,44.681 118.365,44.676 116.166,44.676 C113.922,44.676 111.679,44.682 109.435,44.682 C109.376,44.682 109.317,44.682 109.257,44.682 C106.919,44.681 104.581,44.674 102.243,44.674 C100.157,44.674 98.072,44.680 95.987,44.700 C95.965,44.700 95.943,44.700 95.921,44.700 C95.032,44.700 94.702,44.510 94.708,43.501 C94.758,35.420 94.757,27.338 94.709,19.257 C94.703,18.219 94.990,17.984 95.996,17.984 C96.007,17.984 96.018,17.984 96.029,17.984 C100.492,18.006 104.956,18.016 109.419,18.016 C113.803,18.016 118.186,18.006 122.570,17.988 C122.579,17.988 122.588,17.988 122.598,17.988 C123.537,17.988 123.910,18.188 123.836,19.189 C123.744,20.426 123.757,21.677 123.831,22.916 ZM67.520,28.270 C67.520,28.270 67.520,28.270 67.521,28.270 C70.517,28.269 73.513,28.266 76.509,28.266 C78.607,28.266 80.704,28.268 82.803,28.272 C85.976,28.278 88.285,29.926 89.337,32.886 C90.114,35.071 90.195,37.317 89.781,39.558 C89.224,42.568 86.512,44.640 83.177,44.673 C81.833,44.687 80.488,44.691 79.144,44.691 C77.053,44.691 74.962,44.681 72.871,44.681 C72.871,44.672 72.871,44.662 72.871,44.653 C70.874,44.653 68.877,44.642 66.881,44.642 C65.600,44.642 64.319,44.647 63.038,44.661 C62.996,44.661 62.953,44.662 62.911,44.662 C59.746,44.662 57.922,43.331 57.060,40.300 C56.739,39.169 56.652,38.010 56.633,36.840 C56.624,36.304 56.835,36.085 57.385,36.085 C57.392,36.085 57.398,36.085 57.404,36.085 C58.575,36.095 59.746,36.101 60.917,36.101 C61.997,36.101 63.076,36.096 64.156,36.087 C64.162,36.087 64.169,36.087 64.175,36.087 C64.737,36.087 64.905,36.311 64.892,36.850 C64.865,37.942 65.469,38.279 66.527,38.279 C66.537,38.279 66.546,38.278 66.556,38.278 C67.507,38.273 68.459,38.271 69.410,38.271 C72.842,38.271 76.273,38.300 79.705,38.314 C79.708,38.314 79.712,38.314 79.715,38.314 C80.914,38.314 81.978,37.389 82.011,36.315 C82.046,35.188 81.084,34.338 79.775,34.338 C79.775,34.338 79.775,34.338 79.775,34.338 C76.527,34.338 73.278,34.340 70.030,34.340 C67.986,34.340 65.944,34.339 63.900,34.337 C60.208,34.333 58.194,32.758 57.356,29.200 C56.839,27.005 56.926,24.782 57.371,22.605 C57.974,19.654 60.175,17.790 63.857,17.674 C67.190,17.569 70.530,17.470 73.868,17.470 C76.847,17.470 79.825,17.549 82.796,17.774 C87.233,18.111 89.785,21.436 89.354,25.742 C89.285,26.433 89.077,26.722 88.369,26.722 C88.337,26.722 88.305,26.721 88.271,26.720 C86.921,26.675 85.569,26.659 84.218,26.659 C83.516,26.659 82.814,26.663 82.112,26.670 C82.098,26.670 82.084,26.670 82.070,26.670 C81.445,26.670 81.149,26.533 81.026,25.820 C80.781,24.409 79.917,23.780 78.444,23.775 C76.692,23.769 74.939,23.766 73.188,23.766 C71.307,23.766 69.426,23.769 67.545,23.775 C66.334,23.779 65.172,24.937 65.190,26.076 C65.211,27.360 66.183,28.270 67.520,28.270 ZM50.202,44.697 C50.180,44.697 50.157,44.697 50.134,44.696 C49.028,44.676 47.922,44.661 46.816,44.661 C45.868,44.661 44.920,44.672 43.973,44.703 C43.924,44.704 43.877,44.705 43.831,44.705 C43.016,44.705 42.756,44.442 42.768,43.544 C42.822,39.464 42.791,35.384 42.791,31.304 C42.791,27.224 42.809,23.144 42.776,19.065 C42.770,18.312 42.932,17.987 43.726,17.987 C43.755,17.987 43.785,17.988 43.815,17.988 C44.791,18.016 45.768,18.026 46.745,18.026 C47.901,18.026 49.057,18.011 50.213,17.994 C50.230,17.994 50.246,17.994 50.262,17.994 C50.880,17.994 51.113,18.182 51.112,18.847 C51.092,27.162 51.091,35.477 51.113,43.792 C51.115,44.514 50.849,44.697 50.202,44.697 ZM37.125,34.582 C36.875,34.582 36.703,34.296 36.509,34.148 C26.695,26.697 16.884,19.241 7.074,11.785 C5.824,10.835 4.531,9.934 3.339,8.918 C0.683,6.656 0.008,3.642 -0.003,0.080 C1.233,1.022 2.251,1.787 3.258,2.568 C13.145,10.242 23.016,17.938 32.926,25.584 C35.640,27.678 37.152,30.342 37.436,33.700 C37.460,33.984 37.648,34.372 37.293,34.541 C37.233,34.570 37.178,34.582 37.125,34.582 ZM37.241,25.480 C37.061,25.480 36.818,25.202 36.660,25.076 C33.570,22.597 30.492,20.104 27.409,17.617 C23.747,14.661 20.114,11.670 16.411,8.764 C13.500,6.480 13.243,3.351 13.152,0.131 C13.251,0.088 13.351,0.045 13.450,0.002 C17.600,3.341 21.750,6.681 25.901,10.020 C28.681,12.258 31.461,14.496 34.245,16.729 C36.917,18.874 37.640,21.769 37.474,24.974 C37.455,25.355 37.362,25.480 37.241,25.480 ZM36.906,14.764 C36.838,14.802 36.777,14.818 36.721,14.818 C36.478,14.818 36.341,14.504 36.157,14.361 C34.019,12.709 31.890,11.047 29.757,9.388 C28.538,8.440 27.505,7.335 26.765,5.979 C26.232,5.001 25.967,3.961 26.009,2.849 C26.044,1.928 26.118,1.527 26.460,1.527 C26.688,1.526 27.036,1.705 27.571,2.027 C30.624,3.863 33.404,6.002 35.384,9.000 C36.368,10.488 36.957,12.117 37.081,13.898 C37.034,14.194 37.222,14.586 36.906,14.764 ZM6.820,15.616 C15.467,22.328 24.089,29.073 32.773,35.738 C35.601,37.908 37.195,40.630 37.448,44.130 C37.467,44.388 37.558,44.668 37.261,44.999 C35.564,43.716 33.858,42.434 32.159,41.142 C22.819,34.040 13.482,26.933 4.141,19.833 C1.167,17.571 -0.228,14.450 0.089,10.411 C2.435,12.225 4.630,13.917 6.820,15.616 Z"/>
</svg>