<svg 
 xmlns="http://www.w3.org/2000/svg"
 xmlns:xlink="http://www.w3.org/1999/xlink"
 width="161px" height="51px">
<path fill-rule="evenodd"  fill="rgb(255, 255, 255)"
 d="M135.842,25.082 C132.060,27.914 128.280,30.748 124.495,33.575 C124.303,33.718 124.133,33.998 123.885,33.998 C123.833,33.998 123.777,33.986 123.717,33.957 C123.368,33.790 123.553,33.411 123.577,33.133 C123.831,30.207 124.949,27.653 127.344,25.799 C133.987,20.659 140.678,15.577 147.350,10.471 C151.438,7.342 155.524,4.210 159.619,1.089 C159.902,0.873 160.114,0.516 160.677,0.516 C160.689,0.516 160.701,0.516 160.713,0.516 C160.708,3.879 159.998,6.948 157.127,9.121 C150.055,14.471 142.940,19.765 135.842,25.082 ZM124.430,24.635 C124.250,24.778 124.092,25.050 123.853,25.050 C123.794,25.050 123.730,25.033 123.659,24.993 C123.400,24.848 123.533,24.508 123.524,24.254 C123.410,20.896 124.565,18.182 127.370,16.013 C133.981,10.898 140.476,5.643 147.020,0.446 C147.136,0.354 147.266,0.277 147.676,-0.001 C147.581,3.512 147.261,6.559 144.342,8.837 C137.662,14.052 131.064,19.365 124.430,24.635 ZM124.633,14.433 C124.508,14.530 124.387,14.678 124.237,14.678 C124.206,14.678 124.174,14.672 124.140,14.657 C123.884,14.548 123.930,14.275 123.935,14.053 C123.975,12.096 124.664,10.351 125.780,8.744 C127.886,5.711 130.850,3.630 134.010,1.764 C134.177,1.666 134.312,1.620 134.421,1.620 C134.642,1.620 134.756,1.807 134.809,2.130 C134.870,2.504 134.898,2.882 134.932,3.177 C134.826,5.736 133.435,7.540 131.593,9.037 C129.317,10.887 126.955,12.636 124.633,14.433 ZM117.726,43.614 C117.544,43.793 117.267,43.873 116.830,43.873 C116.794,43.873 116.757,43.872 116.719,43.871 L116.577,43.867 C114.603,43.816 114.526,43.735 114.526,41.718 C114.526,40.041 114.527,38.364 114.528,36.687 C114.531,31.250 114.533,25.629 114.505,20.101 C114.503,19.704 114.536,19.303 114.789,19.057 C114.975,18.876 115.252,18.795 115.687,18.795 L115.687,18.795 C115.737,18.795 115.789,18.796 115.842,18.798 L116.005,18.804 C117.899,18.874 117.973,18.952 117.973,20.890 C117.973,24.379 117.973,27.868 117.973,31.358 C117.973,32.360 117.971,33.363 117.969,34.366 C117.964,37.072 117.959,39.869 117.994,42.619 C118.000,43.133 117.922,43.421 117.726,43.614 ZM106.150,43.854 L106.136,43.854 C102.532,43.849 98.985,43.848 95.990,43.848 L92.337,43.849 L88.683,43.849 C86.666,43.849 84.650,43.849 82.633,43.847 C80.533,43.846 78.680,43.089 77.414,41.715 C76.147,40.341 75.578,38.468 75.812,36.442 C76.133,33.666 77.154,31.318 78.847,29.463 C80.538,27.612 82.809,26.351 85.596,25.715 C85.775,25.674 85.913,25.655 86.030,25.655 C86.420,25.655 86.646,25.874 86.719,26.323 C86.724,26.353 86.737,26.388 86.751,26.425 C86.763,26.458 86.775,26.491 86.784,26.524 C86.841,26.729 86.929,26.950 87.013,27.163 C87.218,27.683 87.431,28.220 87.285,28.678 C87.108,29.233 86.516,29.258 85.994,29.280 C85.725,29.291 85.447,29.303 85.233,29.381 C81.820,30.621 79.934,32.697 79.468,35.729 C79.252,37.137 79.480,38.232 80.147,38.984 C80.820,39.743 81.920,40.130 83.417,40.133 C84.858,40.137 86.407,40.138 88.292,40.138 C89.516,40.138 90.740,40.138 91.964,40.137 C93.156,40.136 94.347,40.136 95.538,40.136 C95.566,40.116 95.600,40.105 95.637,40.105 C96.688,40.105 97.738,40.104 98.789,40.103 C99.840,40.103 100.891,40.102 101.942,40.102 C104.470,40.102 106.404,40.106 108.212,40.113 L108.224,40.114 C109.264,40.114 109.288,39.557 109.296,39.374 C109.306,39.154 109.251,38.981 109.133,38.862 C108.952,38.678 108.648,38.640 108.426,38.640 C108.376,38.640 108.324,38.642 108.271,38.646 C108.200,38.651 108.125,38.653 108.034,38.653 C107.973,38.653 107.911,38.652 107.850,38.651 C107.790,38.650 107.731,38.649 107.671,38.649 L103.717,38.649 L99.684,38.650 C97.998,38.650 96.313,38.649 94.627,38.648 C92.562,38.646 90.852,37.767 89.934,36.236 C89.017,34.705 89.078,32.828 90.101,31.086 C91.666,28.420 94.203,26.747 97.640,26.113 C98.481,25.958 99.334,25.879 100.176,25.879 C103.166,25.879 106.189,26.845 109.690,28.918 C109.946,29.070 110.084,29.233 110.114,29.418 C110.142,29.597 110.069,29.781 109.889,29.981 C109.868,30.004 109.849,30.038 109.828,30.074 C109.812,30.102 109.796,30.129 109.778,30.155 C109.646,30.352 109.521,30.585 109.401,30.811 C109.110,31.360 108.809,31.927 108.317,32.127 C108.215,32.169 108.107,32.190 107.998,32.190 C107.561,32.190 107.154,31.860 106.759,31.540 C106.549,31.370 106.331,31.193 106.122,31.079 C103.898,29.869 101.769,29.280 99.615,29.280 C98.629,29.280 97.627,29.409 96.636,29.662 C95.365,29.987 94.235,30.610 93.276,31.514 C92.636,32.118 92.398,32.775 92.548,33.524 C92.750,34.532 93.247,34.944 94.264,34.944 L94.300,34.944 C96.275,34.925 98.378,34.916 100.917,34.916 C102.754,34.916 104.621,34.920 106.427,34.925 L108.051,34.929 C110.138,34.934 111.949,36.136 112.455,37.852 C113.170,40.276 112.330,42.023 109.959,43.044 C108.694,43.589 107.448,43.854 106.150,43.854 ZM67.642,43.604 C67.453,43.789 67.158,43.871 66.677,43.871 C60.374,43.861 54.077,43.860 47.644,43.860 L45.953,43.860 L44.263,43.860 C32.273,43.860 21.466,43.856 10.623,43.805 C7.428,43.790 4.554,42.487 2.531,40.136 C1.164,38.548 0.524,36.304 0.773,33.980 C1.037,31.518 2.233,29.307 4.054,27.913 C5.555,26.764 7.424,26.018 9.936,25.563 C10.061,25.541 10.172,25.530 10.275,25.530 C10.772,25.530 11.076,25.792 11.231,26.356 C11.299,26.602 11.427,26.872 11.550,27.133 C11.800,27.660 12.035,28.158 11.875,28.576 C11.672,29.105 11.034,29.105 10.727,29.105 C10.618,29.105 10.505,29.102 10.392,29.098 C10.283,29.095 10.172,29.092 10.065,29.092 C9.889,29.092 9.754,29.101 9.641,29.121 C7.763,29.455 6.260,30.405 5.411,31.796 C4.579,33.157 4.440,34.841 5.019,36.539 C5.682,38.483 7.147,39.603 9.497,39.963 C10.087,40.053 10.749,40.096 11.579,40.097 C12.662,40.099 13.746,40.100 14.830,40.100 C15.748,40.100 16.666,40.100 17.584,40.099 C18.502,40.099 19.420,40.098 20.338,40.098 C23.019,40.098 26.183,40.102 29.324,40.127 L29.363,40.127 C29.795,40.127 30.048,40.067 30.183,39.932 C30.321,39.794 30.374,39.543 30.361,39.092 C30.324,37.849 30.329,36.585 30.334,35.363 C30.339,34.270 30.343,33.138 30.318,32.028 C30.308,31.604 30.382,31.337 30.559,31.162 C30.782,30.940 31.138,30.910 31.493,30.910 L31.579,30.910 C33.943,30.911 34.011,30.979 34.011,33.306 C34.011,33.867 34.013,34.427 34.016,34.988 C34.022,36.380 34.028,37.819 33.996,39.234 C33.987,39.634 34.034,39.855 34.153,39.973 C34.256,40.076 34.443,40.125 34.726,40.125 C34.761,40.125 34.797,40.124 34.835,40.123 C35.594,40.093 36.380,40.079 37.238,40.079 C38.037,40.079 38.907,40.092 39.898,40.118 C39.928,40.119 39.956,40.119 39.984,40.119 C40.263,40.119 40.429,40.079 40.521,39.988 C40.619,39.891 40.662,39.703 40.656,39.394 C40.634,38.209 40.637,37.004 40.640,35.838 C40.643,34.614 40.646,33.347 40.620,32.103 C40.610,31.632 40.686,31.352 40.873,31.167 C41.055,30.987 41.337,30.907 41.787,30.907 L41.829,30.907 L41.945,30.908 C44.236,30.931 44.302,30.996 44.302,33.239 C44.302,33.816 44.305,34.393 44.307,34.970 C44.312,36.420 44.318,37.920 44.287,39.395 C44.281,39.700 44.324,39.888 44.422,39.985 C44.515,40.077 44.690,40.120 44.973,40.120 C44.998,40.120 45.024,40.120 45.050,40.119 C46.024,40.096 47.003,40.084 47.961,40.084 C48.916,40.084 49.877,40.096 50.816,40.119 C50.840,40.120 50.863,40.120 50.886,40.120 C51.172,40.120 51.353,40.074 51.455,39.974 C51.568,39.863 51.614,39.659 51.610,39.293 C51.595,38.044 51.600,36.774 51.604,35.546 C51.611,33.712 51.618,31.816 51.560,29.954 C51.526,28.831 51.906,28.300 53.013,27.926 L53.187,27.867 C53.799,27.660 54.168,27.534 54.437,27.534 C54.874,27.534 54.953,27.893 54.978,28.010 C55.036,28.272 55.036,28.659 55.036,29.246 L55.036,29.310 C55.036,30.199 55.037,31.089 55.039,31.978 C55.043,34.390 55.048,36.885 55.018,39.339 C55.014,39.677 55.059,39.874 55.164,39.977 C55.267,40.078 55.464,40.123 55.801,40.123 L55.836,40.123 L55.941,40.122 C56.950,40.114 57.506,40.109 57.730,39.884 C57.955,39.656 57.955,39.098 57.955,38.084 C57.955,37.304 57.960,36.512 57.964,35.745 C57.974,33.786 57.985,31.761 57.926,29.772 C57.896,28.760 58.274,28.244 59.232,27.991 C59.647,27.881 60.060,27.716 60.498,27.540 C60.711,27.455 60.931,27.366 61.167,27.278 C61.187,27.271 61.207,27.267 61.228,27.267 C61.262,27.267 61.295,27.277 61.323,27.296 C61.369,27.326 61.397,27.377 61.397,27.431 C61.397,28.519 61.400,29.595 61.404,30.662 C61.413,33.478 61.421,36.139 61.369,38.848 C61.357,39.451 61.423,39.766 61.595,39.936 C61.739,40.078 61.986,40.145 62.373,40.145 C62.452,40.145 62.539,40.142 62.630,40.136 L62.886,40.121 C63.668,40.074 64.099,40.049 64.267,39.862 C64.442,39.668 64.442,39.209 64.442,38.377 C64.442,37.587 64.446,36.783 64.450,36.007 C64.460,34.058 64.471,32.043 64.415,30.064 C64.387,29.044 64.620,28.329 65.871,27.921 L66.095,27.847 C66.684,27.654 67.040,27.537 67.299,27.537 C67.587,27.537 67.761,27.687 67.830,27.995 C67.887,28.245 67.887,28.615 67.886,29.174 L67.886,29.251 C67.886,30.372 67.885,31.493 67.884,32.613 C67.881,35.881 67.878,39.259 67.903,42.581 C67.906,42.983 67.888,43.364 67.642,43.604 ZM32.195,28.495 L32.167,28.495 C31.638,28.495 31.129,28.280 30.732,27.889 C30.289,27.453 30.041,26.845 30.051,26.223 C30.070,25.042 31.088,24.006 32.229,24.006 L32.229,24.006 L32.229,24.088 L32.229,24.088 L32.229,24.006 C32.244,24.006 32.259,24.006 32.274,24.006 C33.405,24.033 34.274,25.030 34.253,26.276 C34.232,27.504 33.328,28.479 32.195,28.495 ZM27.478,28.497 C27.446,28.497 27.415,28.496 27.383,28.495 C26.268,28.441 25.350,27.396 25.377,26.212 C25.405,25.016 26.399,24.005 27.548,24.005 C27.569,24.005 27.591,24.005 27.612,24.006 C28.737,24.044 29.629,25.067 29.601,26.287 C29.574,27.506 28.621,28.497 27.478,28.497 ZM35.498,46.527 L35.524,46.527 C35.524,46.527 35.524,46.527 35.524,46.527 C36.668,46.527 37.542,47.470 37.558,48.720 C37.567,49.384 37.330,49.987 36.892,50.417 C36.511,50.792 36.003,50.998 35.464,50.998 L35.448,50.998 C34.308,50.990 33.368,50.010 33.351,48.815 C33.343,48.238 33.571,47.659 33.975,47.225 C34.382,46.789 34.937,46.534 35.498,46.527 ZM40.150,46.530 C40.169,46.529 40.188,46.529 40.206,46.529 C41.336,46.529 42.207,47.463 42.232,48.701 C42.246,49.368 42.011,49.975 41.569,50.412 C41.187,50.790 40.679,50.998 40.141,50.998 C38.983,50.998 38.056,50.048 38.031,48.834 C38.006,47.617 38.977,46.561 40.150,46.530 ZM89.916,46.522 C89.933,46.522 89.950,46.521 89.967,46.521 C89.967,46.521 89.967,46.521 89.967,46.521 C91.103,46.521 91.981,47.455 92.010,48.693 C92.025,49.345 91.785,49.968 91.350,50.401 C90.967,50.784 90.459,50.996 89.920,50.999 L89.909,50.999 C88.755,50.999 87.828,50.051 87.798,48.840 C87.768,47.613 88.738,46.551 89.916,46.522 ZM94.580,46.523 C94.602,46.522 94.623,46.522 94.644,46.522 C95.777,46.522 96.653,47.453 96.680,48.688 C96.695,49.346 96.454,49.972 96.019,50.406 C95.637,50.786 95.132,50.996 94.595,50.998 C94.595,50.998 94.587,50.998 94.586,50.998 C93.446,50.998 92.487,50.033 92.449,48.846 C92.411,47.667 93.427,46.559 94.580,46.523 ZM127.896,35.383 C138.602,27.205 149.300,19.016 160.001,10.831 C160.151,10.716 160.313,10.617 160.718,10.340 C160.694,14.118 159.807,17.205 156.746,19.486 C146.127,27.402 135.543,35.362 124.938,43.295 C124.550,43.584 124.246,44.010 123.594,44.163 C123.447,41.833 124.178,39.814 125.397,37.926 C126.049,36.917 126.933,36.119 127.896,35.383 Z"/>
</svg>